<svg xmlns="http://www.w3.org/2000/svg" xmlns:xlink="http://www.w3.org/1999/xlink" version="1.1" x="0px" y="0px" viewBox="0 0 512 512" enable-background="new 0 0 512 512" xml:space="preserve" style="max-width:100%" height="512" width="512" ><path d="M447.238,201.027l-6.224-6.223l28-28.002l-31.108-31.111l-28.004,28.002l-6.224-6.223l-24.891,24.889l6.223,6.225  l-47.227,47.227V124h-26.402V97.6h-26.397V71.2h-242V388h26.4v26.398h26.4V440.8h242V304.258l13-13.004  c1.719-1.719,1.719-4.504,0-6.223l65.34-65.338l6.223,6.225l12.449-12.447l9.332,9.336l-30.57,30.568l-32.483,17.195l4.117,7.772  l33.069-17.5l38.31-38.037l-15.556-15.557L447.238,201.027z M69.385,379.199h-17.6V80h224.398v17.6H69.385V379.199z M95.785,405.602  H78.184V388v-8.801V106.4h198h8.801h17.603V124H95.785V405.602z M328.984,432h-224.4v-17.602v-8.797V132.801h198.002h8.797h17.603  v111.811l-9.31,9.307c-1.719-1.719-4.5-1.719-6.219,0l-15.559,15.56c-1.715,1.711-1.724,4.5,0,6.219l0.762,0.766l-13.941,25.102  c-0.953,1.72-0.656,3.859,0.734,5.25l3.109,3.109l-12.441,12.445l6.223,6.223l12.441-12.449l3.113,3.113  c1.391,1.395,3.539,1.688,5.245,0.734l25.103-13.941l0.738,0.738V432z M305.133,282.934l16.642,16.642l-20,11.112l-7.755-7.75  L305.133,282.934z M337.785,291.813l-5.664,5.664l-24.891-24.891l9.336-9.336l12.418,12.422l8.801,8.801l3.668,3.668  L337.785,291.813z M344.566,278.813l-6.781-6.78l-8.801-8.806l-3.086-3.086l3.086-3.086l8.801-8.799l53.449-53.449l18.668,18.664  L344.566,278.813z M422.348,213.475l-31.112-31.115l12.444-12.445l31.117,31.113L422.348,213.475z M416.125,169.914l21.781-21.777  l18.664,18.666l-21.773,21.779L416.125,169.914z" style="" fill="#E51937"></path><rect x="271.785" y="154.801" width="39.598" height="8.799" style="" fill="#E51937"></rect><rect x="192.584" y="181.199" width="118.799" height="8.801" style="" fill="#E51937"></rect><path d="M126.584,273.602h57.201v-52.801h-57.201V273.602z M135.385,229.6h39.6v35.201h-39.6V229.6L135.385,229.6z" style="" fill="#E51937"></path><rect x="192.584" y="220.801" width="118.799" height="8.799" style="" fill="#E51937"></rect><rect x="192.584" y="247.199" width="92.4" height="8.801" style="" fill="#E51937"></rect><path d="M126.584,410h57.201v-57.199h-57.201V410z M174.984,401.199h-31.709l31.709-35.195V401.199z M135.385,361.602h35.047  l-35.047,31.56V361.602z" style="" fill="#E51937"></path><rect x="192.584" y="352.801" width="118.799" height="8.801" style="" fill="#E51937"></rect><rect x="192.584" y="379.199" width="118.799" height="8.801" style="" fill="#E51937"></rect><path d="M126.584,344h57.201v-57.199h-57.201V344z M174.984,335.199H139.9l35.084-38.574V335.199z M135.385,295.602h31.668  l-31.668,28.185V295.602z" style="" fill="#E51937"></path><rect x="192.584" y="286.801" width="70.4" height="8.801" style="" fill="#E51937"></rect><rect x="227.785" y="313.199" width="26.398" height="8.801" style="" fill="#E51937"></rect><rect x="192.584" y="313.199" width="26.4" height="8.801" style="" fill="#E51937"></rect><rect x="192.584" y="154.801" width="70.4" height="8.799" style="" fill="#E51937"></rect><path d="M126.584,207.6H138.4l0.305,0.305l0.307-0.305h44.773v-52.799h-57.201V207.6L126.584,207.6z M174.984,198.801H147.81  l27.174-30.662V198.801z M135.385,163.6h35.182l-35.182,31.697V163.6L135.385,163.6z" style="" fill="#E51937"></path></svg>