<svg xmlns:xlink="http://www.w3.org/1999/xlink" xmlns:dc="http://purl.org/dc/elements/1.1/" xmlns:cc="http://creativecommons.org/ns#" xmlns:rdf="http://www.w3.org/1999/02/22-rdf-syntax-ns#" xmlns:svg="http://www.w3.org/2000/svg" xmlns="http://www.w3.org/2000/svg" xmlns:sodipodi="http://sodipodi.sourceforge.net/DTD/sodipodi-0.dtd" xmlns:inkscape="http://www.inkscape.org/namespaces/inkscape" version="1.1" x="0px" y="0px" viewBox="0 0 128 128" enable-background="new 0 0 128 128" xml:space="preserve" style="max-width:100%" height="128" width="128" ><path style="" d="M 83.199219 1.0996094 C 79.599219 1.0996094 76.800781 3.9996094 76.800781 7.5996094 C 76.800781 10.799609 79.099609 13.4 82.099609 14 L 82.400391 21 C 80.200391 21.5 78.3 22.700391 77 24.400391 L 58.199219 14.699219 C 58.299219 14.299219 58.300781 13.999609 58.300781 13.599609 C 58.300781 10.599609 55.800781 8.0996094 52.800781 8.0996094 C 49.800781 8.0996094 47.300781 10.599609 47.300781 13.599609 C 47.300781 16.599609 49.800781 19.099609 52.800781 19.099609 C 54.400781 19.099609 55.800781 18.400781 56.800781 17.300781 L 75.599609 27 C 75.299609 27.9 75.199219 28.799219 75.199219 29.699219 C 75.199219 31.599219 75.800781 33.300781 76.800781 34.800781 L 45.800781 64.599609 C 44.300781 63.499609 42.5 62.800781 40.5 62.800781 C 38.6 62.800781 36.800391 63.400391 35.400391 64.400391 L 21.599609 50.599609 C 22.399609 49.399609 22.900391 48.000391 22.900391 46.400391 C 22.900391 42.300391 19.500391 38.900391 15.400391 38.900391 C 11.300391 38.900391 7.9003906 42.300391 7.9003906 46.400391 C 7.9003906 50.500391 11.300391 53.900391 15.400391 53.900391 C 16.900391 53.900391 18.3 53.499219 19.5 52.699219 L 33.199219 66.599609 C 32.099219 68.099609 31.5 69.900391 31.5 71.900391 C 31.5 72.500391 31.599219 73 31.699219 73.5 L 11.199219 80.900391 C 10.199219 79.400391 8.4996094 78.400391 6.5996094 78.400391 C 3.5996094 78.400391 1.0996094 80.900391 1.0996094 83.900391 C 1.0996094 86.900391 3.5996094 89.400391 6.5996094 89.400391 C 9.5996094 89.400391 12 87.000391 12 83.900391 L 12 83.699219 L 32.599609 76.199219 C 33.799609 78.399219 36 80 38.5 80.5 L 38.199219 92.300781 C 35.899219 92.900781 34.199219 95.099609 34.199219 97.599609 C 34.199219 100.59961 36.699219 103.09961 39.699219 103.09961 C 42.699219 103.09961 45.199219 100.59961 45.199219 97.599609 C 45.199219 95.099609 43.499219 93.000781 41.199219 92.300781 L 41.5 80.599609 C 44.8 80.199609 47.600781 78.099609 48.800781 75.099609 L 75.900391 81.300781 L 75.900391 81.599609 C 75.900391 85.699609 79.300391 89.099609 83.400391 89.099609 C 83.800391 89.099609 84.1 89.1 84.5 89 L 86.699219 95.199219 C 83.899219 96.699219 82.099609 99.699609 82.099609 103.09961 C 82.099609 105.29961 82.900781 107.40039 84.300781 108.90039 L 78.099609 116.30078 C 77.399609 116.00078 76.700391 115.80078 75.900391 115.80078 C 72.900391 115.80078 70.400391 118.30078 70.400391 121.30078 C 70.400391 124.30078 72.900391 126.80078 75.900391 126.80078 C 78.900391 126.80078 81.400391 124.30078 81.400391 121.30078 C 81.400391 120.20078 81.000391 119.09922 80.400391 118.19922 L 86.599609 110.80078 C 87.899609 111.60078 89.499609 112 91.099609 112 C 93.599609 112 95.9 111.00078 97.5 109.30078 L 112.40039 119.59961 C 112.20039 120.09961 112.09961 120.69922 112.09961 121.19922 C 112.09961 124.19922 114.59961 126.69922 117.59961 126.69922 C 120.59961 126.69922 123.09961 124.19922 123.09961 121.19922 C 123.09961 118.19922 120.59961 115.69922 117.59961 115.69922 C 116.19961 115.69922 115 116.2 114 117 L 99.199219 106.69922 C 99.699219 105.49922 100.09961 104.20039 100.09961 102.90039 C 100.09961 97.900391 96.099609 93.900391 91.099609 93.900391 C 90.599609 93.900391 90.099609 94 89.599609 94 L 87.400391 87.800781 C 89.600391 86.500781 91 84.100391 91 81.400391 C 91 77.300391 87.6 73.900391 83.5 73.900391 C 80.5 73.900391 77.899219 75.699219 76.699219 78.199219 L 49.599609 72 L 49.599609 71.5 C 49.599609 69.6 49 67.900391 48 66.400391 L 78.900391 36.699219 C 80.400391 37.799219 82.199219 38.5 84.199219 38.5 C 86.199219 38.5 88.099609 37.799219 89.599609 36.699219 L 103.59961 50 C 102.99961 51 102.69922 52.100781 102.69922 53.300781 C 102.69922 56.900781 105.59922 59.800781 109.19922 59.800781 C 112.79922 59.800781 115.69922 56.900781 115.69922 53.300781 C 115.69922 49.700781 112.79922 46.800781 109.19922 46.800781 C 107.89922 46.800781 106.69961 47.200391 105.59961 47.900391 L 91.599609 34.599609 C 92.599609 33.199609 93.099609 31.399609 93.099609 29.599609 L 93.099609 29.5 L 116.5 25.199219 C 117.4 26.999219 119.30039 28.300781 121.40039 28.300781 C 124.40039 28.300781 126.90039 25.800781 126.90039 22.800781 C 126.90039 19.800781 124.5 17.5 121.5 17.5 C 118.6 17.5 116.3 19.7 116 22.5 L 92.599609 26.800781 C 91.499609 23.700781 88.700781 21.400391 85.300781 20.900391 L 85 13.800781 C 87.7 13.000781 89.699219 10.499609 89.699219 7.5996094 C 89.699219 3.9996094 86.799219 1.0996094 83.199219 1.0996094 z M 83.300781 4.0996094 C 85.200781 4.0996094 86.800781 5.6996094 86.800781 7.5996094 C 86.800781 9.4996094 85.200781 11.099609 83.300781 11.099609 C 81.400781 11.099609 79.800781 9.4996094 79.800781 7.5996094 C 79.800781 5.6996094 81.400781 4.0996094 83.300781 4.0996094 z M 52.800781 11.199219 C 54.200781 11.199219 55.300781 12.299219 55.300781 13.699219 C 55.300781 15.099219 54.100781 16.199219 52.800781 16.199219 C 51.400781 16.199219 50.300781 15.099219 50.300781 13.699219 C 50.300781 12.299219 51.400781 11.199219 52.800781 11.199219 z M 121.5 20.5 C 122.9 20.5 124 21.6 124 23 C 124 24.4 122.9 25.5 121.5 25.5 C 120.1 25.5 119 24.4 119 23 C 119 21.6 120.1 20.5 121.5 20.5 z M 84.199219 23.800781 C 87.499219 23.800781 90.199219 26.500781 90.199219 29.800781 C 90.199219 33.100781 87.499219 35.800781 84.199219 35.800781 C 80.899219 35.800781 78.199219 33.200781 78.199219 29.800781 C 78.199219 26.500781 80.899219 23.800781 84.199219 23.800781 z M 15.400391 41.900391 C 17.900391 41.900391 19.900391 43.900391 19.900391 46.400391 C 19.900391 48.900391 17.900391 50.900391 15.400391 50.900391 C 12.900391 50.900391 10.900391 48.900391 10.900391 46.400391 C 10.900391 43.900391 12.900391 41.900391 15.400391 41.900391 z M 109.19922 50.099609 C 111.09922 50.099609 112.69922 51.699609 112.69922 53.599609 C 112.69922 55.499609 111.09922 57.099609 109.19922 57.099609 C 107.29922 57.099609 105.69922 55.499609 105.69922 53.599609 C 105.69922 51.699609 107.29922 50.099609 109.19922 50.099609 z M 40.400391 65.900391 C 43.700391 65.900391 46.400391 68.600391 46.400391 71.900391 C 46.400391 75.200391 43.800391 77.900391 40.400391 77.900391 C 37.100391 77.900391 34.400391 75.200391 34.400391 71.900391 C 34.400391 68.600391 37.100391 65.900391 40.400391 65.900391 z M 83.300781 77.300781 C 85.800781 77.300781 87.800781 79.300781 87.800781 81.800781 C 87.800781 84.300781 85.800781 86.300781 83.300781 86.300781 C 80.800781 86.300781 78.800781 84.300781 78.800781 81.800781 C 78.800781 79.300781 80.800781 77.300781 83.300781 77.300781 z M 6.5 81.400391 C 7.9 81.400391 9 82.600391 9 83.900391 C 9 85.200391 7.9 86.400391 6.5 86.400391 C 5.1 86.400391 4 85.300391 4 83.900391 C 4 82.500391 5.1 81.400391 6.5 81.400391 z M 39.599609 95.199219 C 40.999609 95.199219 42.099609 96.399219 42.099609 97.699219 C 42.099609 99.099219 40.999609 100.19922 39.599609 100.19922 C 38.199609 100.19922 37.099609 99.099219 37.099609 97.699219 C 37.099609 96.299219 38.199609 95.199219 39.599609 95.199219 z M 90.900391 97.300781 C 94.200391 97.300781 96.900391 99.900781 96.900391 103.30078 C 96.900391 106.60078 94.200391 109.30078 90.900391 109.30078 C 87.600391 109.30078 84.900391 106.60078 84.900391 103.30078 C 84.900391 100.00078 87.600391 97.300781 90.900391 97.300781 z M 75.699219 119 C 77.099219 119 78.199219 120.1 78.199219 121.5 C 78.199219 122.9 76.999219 124 75.699219 124 C 74.299219 124 73.199219 122.9 73.199219 121.5 C 73.199219 120.1 74.299219 119 75.699219 119 z M 117.5 119 C 118.9 119 120 120.1 120 121.5 C 120 122.9 118.9 124 117.5 124 C 116.1 124 115 122.9 115 121.5 C 115 120.1 116.1 119 117.5 119 z " fill="#FFFFFF" stroke="#FFFFFF"></path></svg>