<svg xmlns="http://www.w3.org/2000/svg" xmlns:xlink="http://www.w3.org/1999/xlink" version="1.1" x="0px" y="0px" viewBox="0 0 100 100" enable-background="new 0 0 100 100" xml:space="preserve" style="max-width:100%" height="100" width="100" ><path d="M30.455,49.597c-2.439,0-4.422,1.985-4.422,4.424s1.983,4.42,4.422,4.42s4.422-1.981,4.422-4.42  S32.894,49.597,30.455,49.597z M29.783,54.021c0-0.37,0.302-0.674,0.672-0.674s0.672,0.304,0.672,0.674  C31.127,54.761,29.783,54.761,29.783,54.021z" style="" fill="#E51937"></path><path d="M47.206,27.866c5.543,0,10.051-4.508,10.051-10.049c0-5.544-4.508-10.052-10.051-10.052s-10.051,4.508-10.051,10.052  C37.155,23.358,41.663,27.866,47.206,27.866z M47.206,11.515c3.474,0,6.301,2.827,6.301,6.302c0,3.472-2.827,6.299-6.301,6.299  s-6.301-2.827-6.301-6.299C40.905,14.342,43.732,11.515,47.206,11.515z" style="" fill="#E51937"></path><path d="M57.183,39.497c-0.176-0.088-4.393-2.172-9.415-2.421c-4.755-0.249-9.067,1.208-9.25,1.267  c-0.98,0.333-1.503,1.395-1.174,2.377c0.333,0.981,1.392,1.498,2.375,1.176c0.04-0.011,3.843-1.274,7.863-1.077  c4.211,0.212,7.89,2.014,7.927,2.032c0.269,0.135,0.555,0.198,0.833,0.198c0.688,0,1.351-0.381,1.681-1.04  C58.483,41.083,58.11,39.958,57.183,39.497z" style="" fill="#E51937"></path><path d="M89.029,52.344c-1.813-2.025-4.277-2.278-6.683-1.772c1.348-2.117,3.929-2.761,3.948-2.765  c1.007-0.227,1.641-1.234,1.41-2.245c-0.231-1.003-1.201-1.648-2.245-1.41c-0.168,0.037-4.182,0.985-6.354,4.534  c-0.67,1.095-1.091,2.303-1.263,3.611c-0.553,0.293-1.057,0.59-1.523,0.879C73.172,40.519,60.81,31.038,46.056,31.038  c-4.814,0-9.587,1.036-13.879,2.999L21.734,25.83c-0.656-0.509-1.573-0.531-2.25-0.048c-0.679,0.483-0.954,1.359-0.677,2.146  l4.349,12.345c-3.074,3.08-5.383,6.775-6.74,10.789l-6.154,2.728c-0.677,0.3-1.115,0.97-1.115,1.714v7.965  c0,0.743,0.438,1.414,1.115,1.714l6.154,2.728c1.963,5.801,5.923,10.898,11.266,14.498l1.28,8.24  c0.143,0.912,0.928,1.586,1.853,1.586h8.225c0.925,0,1.71-0.674,1.853-1.586l0.472-3.047c3.135,0.439,6.248,0.439,9.382,0  l0.472,3.047c0.143,0.912,0.928,1.586,1.853,1.586h8.223c0.923,0,1.71-0.674,1.853-1.586l1.282-8.24  c7.961-5.361,12.686-13.868,12.686-22.921c0-0.754-0.06-1.496-0.124-2.236c0.354-0.251,0.669-0.494,1.09-0.756  c0.037,0.161,0.073,0.326,0.117,0.491c0.82,3.234,2.871,5.27,5.625,5.588c0.238,0.029,0.472,0.04,0.707,0.04  c2.358,0,4.636-1.333,5.709-3.402C91.373,57.024,90.922,54.457,89.029,52.344z M61.702,79.714c-0.458,0.289-0.765,0.762-0.85,1.293  l-1.165,7.478h-5.01l-0.518-3.34c-0.079-0.505-0.361-0.956-0.78-1.249c-0.419-0.289-0.938-0.406-1.441-0.3  c-3.915,0.784-7.852,0.784-11.766,0c-0.504-0.103-1.02,0.011-1.441,0.3c-0.419,0.293-0.701,0.743-0.78,1.249l-0.518,3.34H32.42  l-1.161-7.478c-0.082-0.531-0.392-1.003-0.85-1.293c-5.208-3.303-8.998-8.174-10.671-13.718c-0.157-0.524-0.535-0.952-1.035-1.172  l-5.808-2.574v-5.526l5.808-2.574c0.5-0.22,0.877-0.648,1.035-1.172c1.232-4.076,3.602-7.815,6.855-10.807  c0.553-0.509,0.749-1.296,0.5-2.003l-2.607-7.405l6.292,4.948c0.571,0.447,1.355,0.527,2.003,0.198  c4.045-2.04,8.635-3.12,13.275-3.12c15.06,0,27.31,11.082,27.31,24.701C73.366,67.52,69.004,75.082,61.702,79.714z M86.908,57.489  c-0.461,0.897-1.6,1.494-2.655,1.362c-1.458-0.168-2.12-1.608-2.421-2.787c-0.117-0.465-0.201-0.912-0.256-1.344  c1.897-0.714,3.71-0.93,4.662,0.128C87.095,55.804,87.322,56.694,86.908,57.489z" style="" fill="#E51937"></path></svg>