<svg xmlns="http://www.w3.org/2000/svg" xmlns:xlink="http://www.w3.org/1999/xlink" version="1.1" x="0px" y="0px" viewBox="0 0 140 140" enable-background="new 0 0 140 140" xml:space="preserve" style="max-width:100%" height="140" width="140" ><g style="" fill="#E51937"><path d="M43.8300781,33.2903328h1.9799805h2.4499512H91.75h2.4499512h1.9899902c1.960083,0,3.710083-1.1000977,4.5500488-2.8601074   c0.8599854-1.7799072,0.6099854-3.8498535-0.6300049-5.3999023c-4.6500244-5.7800293-12.039917-11.1999521-23.25-17.0600586   c-4.9400635-2.5799561-10.7799072-2.4099121-15.5899658,0.4599609   c-8.2099609,4.880127-15.3000488,10.3701181-21.0800781,16.3100586c-1.4399414,1.4499512-1.8299561,3.5400391-1.039917,5.4299316   C39.9599609,32.0902596,41.75,33.2903328,43.8300781,33.2903328z" style="" fill="#E51937"></path><path d="M75.1699219,93.1704559H64.8300781c-0.2530518,0-0.5028076-0.0131836-0.7491455-0.0373535l-4.980957,39.597168   c-0.0299072,0.2800293,0.0599365,0.5700684,0.2401123,0.7800293c0.1899414,0.2199707,0.4699707,0.3399658,0.75,0.3399658   h19.8198242c0.2800293,0,0.5600586-0.1199951,0.75-0.3399658c0.1801758-0.2099609,0.2700195-0.5,0.2401123-0.7800293   l-4.9810791-39.598877C75.6713867,93.1558075,75.4217529,93.1704559,75.1699219,93.1704559z" style="" fill="#E51937"></path><path d="M103.0600586,80.5902557l-21.4436035-7.7188721c7.989624-5.9661865,13.0534668-17.6672325,13.0534668-30.5010948   c0-0.2700195,0-0.5300293-0.0198975-0.7399902c-0.0200195-1.2700195-0.0899658-2.5200195-0.2000732-3.710083   c-0.0200195-0.1599121-0.0300293-0.3199463-0.0499268-0.4699707v-0.0100098v-0.0899658   c-0.0699463-0.6800537-0.1700439-1.3699951-0.2800293-2.0599365h-2.0100098H47.8900146h-2.0100098   c-0.0699463,0.4699707-0.1500244,0.9399414-0.2000732,1.4199219c0,0.0100098,0,0.0100098,0,0.0200195   c-0.0200195,0.1899414-0.0499268,0.3699951-0.0599365,0.5600586c-0.1300049,1.119873-0.210083,2.2399902-0.2399902,3.369873   c-0.0200195,0.5600586-0.039917,1.1501465-0.039917,1.710083c0,12.8342285,5.0640869,24.5440636,13.0375977,30.5030479   l-21.4377441,7.7169189c-12.4199219,4.4801025-20.7700195,16.3599854-20.7700195,29.5699463v22.6900635   c0,0.5500488,0.4500732,1,1,1h20.1132813v-16.2293701c0-0.6765137,0.4472656-1.223877,1-1.223877s1,0.5473633,1,1.223877   v16.2293701h17.9957275c-0.1502686-0.4238281-0.2156982-0.8756104-0.1685791-1.3282471l5.0136719-39.8562012   c-2.6206055-1.0126953-4.4736328-3.4467773-4.4736328-6.2854004c0-1.859375,0.7822266-3.5957031,2.203125-4.8896484   c1.359375-1.2216797,3.1240234-1.890625,4.9765625-1.890625h10.3398438c3.9589844,0,7.1796875,3.0419922,7.1796875,6.7802734   c0,1.8730469-0.7890625,3.6152344-2.2207031,4.9052734c-0.6602783,0.5991211-1.4246826,1.0644531-2.2524414,1.3837891   l5.0083008,39.8105469c0.0500488,0.4780273-0.0152588,0.9414063-0.1652832,1.3702393h17.9973145v-16.2293701   c0-0.6765137,0.4472656-1.223877,1-1.223877s1,0.5473633,1,1.223877v16.2293701h20.1132813c0.5499268,0,1-0.4499512,1-1V110.160202   C123.8300781,96.9502411,115.4799805,85.0703583,103.0600586,80.5902557z M49.3599854,109.0902557c0,0.5500488-0.4400635,1-1,1   H29.3300781c-0.5500488,0-1-0.4499512-1-1v-4.8099365c0-0.5500488,0.4499512-1,1-1h19.0299072c0.5599365,0,1,0.4499512,1,1   V109.0902557z M49.5878906,86.8999481l-17.0263672,7.6298828c-0.1328125,0.0595703-0.2714844,0.0878906-0.4082031,0.0878906   c-0.3828125,0-0.7470703-0.2197266-0.9130859-0.5908203c-0.2265625-0.5039063-0.0009766-1.0957031,0.5029297-1.3212891   l17.0263672-7.6298828c0.5048828-0.2255859,1.0957031,0,1.3212891,0.5029297   C50.3173828,86.0825653,50.0917969,86.6743622,49.5878906,86.8999481z M47.3400879,42.3702888   c0-0.539917,0.0198975-1.0999756,0.039917-1.6700439c0.0200195-0.7399902,0.0699463-1.4799805,0.1300049-2.2299805   c0.3000488,0.1600342,0.6099854,0.3100586,0.9299316,0.4699707c0.1900635,0.0900879,0.3901367,0.1800537,0.5900879,0.2700195   c0.2099609,0.1000977,0.4199219,0.1900635,0.6298828,0.2800293c0.1601563,0.0700684,0.3300781,0.1400146,0.4901123,0.1999512   c0.5499268,0.2299805,1.1099854,0.4400635,1.6999512,0.6500244c0.1700439,0.0600586,0.3399658,0.1199951,0.5100098,0.1700439   c0.0799561,0.0300293,0.1600342,0.0600586,0.25,0.0899658c0.3199463,0.0999756,0.6400146,0.2000732,0.960083,0.3000488   c1.3498535,0.4100342,2.7799072,0.7698975,4.2700195,1.0699463c0.3999023,0.0900879,0.8099365,0.1700439,1.2199707,0.2399902   c0.9099121,0.1700439,1.8399658,0.3200684,2.7800293,0.4400635c0.5299072,0.0799561,1.0698242,0.1400146,1.619873,0.1999512   c0.4000244,0.0500488,0.8200684,0.0899658,1.2299805,0.1199951c0.2399902,0.0200195,0.4899902,0.0400391,0.7299805,0.0600586   c0.5100098,0.0400391,1.0300293,0.0799561,1.5400391,0.0999756c0.3900146,0.0200195,0.7800293,0.039917,1.1800537,0.0499268   c0.7999268,0.0400391,1.5999756,0.0500488,2.4100342,0.0500488c1.6999512,0,3.3898926-0.0600586,5.0400391-0.1899414   c0.5098877-0.0300293,1.0198975-0.0800781,1.5198975-0.130127c0.6500244-0.0599365,1.2999268-0.1298828,1.9300537-0.2199707   c0.4199219-0.0499268,0.8299561-0.1098633,1.2299805-0.1699219c0.8898926-0.1300049,1.7600098-0.2800293,2.6099854-0.4599609   c0.3599854-0.0700684,0.7199707-0.1401367,1.0699463-0.2200928c0.4200439-0.0899658,0.8300781-0.1800537,1.2399902-0.289917   c0.4799805-0.1101074,0.960083-0.2399902,1.4200439-0.3701172c0.8599854-0.2399902,1.6800537-0.4899902,2.4801025-0.7700195   c0.8198242-0.289917,1.6098633-0.5898438,2.3598633-0.9099121c0.2600098-0.1099854,0.5200195-0.2299805,0.7700195-0.3499756   c0.1101074-0.0400391,0.2099609-0.0899658,0.3200684-0.1400146c0.0599365,0.8699951,0.0999756,1.7700195,0.1099854,2.7199707   c0.0198975,0.2099609,0.0198975,0.4299316,0.0198975,0.6400146c0,13.0200195-5.3999023,24.7700157-13.7600098,29.9300499   c-5.6499023,3.4899902-12.1799316,3.4899902-17.8198242,0C52.7399902,67.1403046,47.3400879,55.3903084,47.3400879,42.3702888z    M107.3100586,106.2302704c0,4.8200684-3.9300537,8.7399902-8.75,8.7399902c-4.8200684,0-8.7299805-3.9199219-8.7299805-8.7399902   V97.620285c0-0.5499268,0.4399414-1,1-1h15.4799805c0.5499268,0,1,0.4500732,1,1V106.2302704z M108.7597656,94.0269012   c-0.1660156,0.3710938-0.5302734,0.5908203-0.9130859,0.5908203c-0.1367188,0-0.2753906-0.0283203-0.4082031-0.0878906   l-17.0263672-7.6298828c-0.5039063-0.2255859-0.7294922-0.8173828-0.5029297-1.3212891   c0.2255859-0.5029297,0.8164063-0.7285156,1.3212891-0.5029297l17.0263672,7.6298828   C108.7607422,92.9311981,108.9863281,93.522995,108.7597656,94.0269012z" style="" fill="#E51937"></path><path d="M75.1699219,91.1702118c1.3701172,0,2.6501465-0.4899902,3.6201172-1.369873   c1.0100098-0.9100342,1.5599365-2.1201172,1.5599365-3.4200439c0-2.6300049-2.3199463-4.7800293-5.1800537-4.7800293H64.8300781   c-1.3601074,0-2.6401367,0.4801025-3.630127,1.3699951c-1,0.9100342-1.5499268,2.1199951-1.5499268,3.4100342   c0,2.6400146,2.3299561,4.789917,5.1800537,4.789917H75.1699219z" style="" fill="#E51937"></path></g></svg>