<svg xmlns="http://www.w3.org/2000/svg" xmlns:xlink="http://www.w3.org/1999/xlink" version="1.1" x="0px" y="0px" viewBox="0 0 100 100" enable-background="new 0 0 100 100" xml:space="preserve" style="max-width:100%" height="100" width="100" ><path fill="#FFFFFF" d="M79.168,82.199l0.211-0.211l1.648,1.48l0.494,0.442l0.469-0.469l2.021-2.022l0.461-0.46l-0.426-0.492  l-1.459-1.689l0.336-0.335l0.796-0.796l0.495-0.495l-0.495-0.495l-2.425-2.426l-0.08-0.08l-0.102-0.05l-6.268-3.137l-0.225-0.225  L74.6,70.72l-0.021-0.019l-1.906-1.611L56.875,53.292l-0.921-1.177l0.321-0.321l0.795-0.796l0.496-0.495l-0.496-0.495l-1.469-1.47  l-0.129-0.129l-0.177-0.049c-1.876-0.529-3.966-1.145-4.379-1.306l-3.337-2.67l-7.093-7.094l-6.889-7.197l-5.8-5.802l-0.812-0.812  l-0.876-0.809l-0.843-0.753l-0.839-0.751l-0.81-0.745l-0.866-0.708l-0.867-0.627l-0.829-0.609l-0.8-0.578l-0.758-0.535  c-0.202-0.136-0.843-0.562-1.146-0.685l-0.43-0.174l-0.328,0.328c-0.242,0.242-0.393,0.7-0.186,1.177l0.019,0.041l0.021,0.038  l0.464,0.784l0.015,0.024l0.016,0.022l0.531,0.752l0.57,0.802l0.629,0.842l0.648,0.817l0.694,0.839l0.705,0.86l0.789,0.858  l0.748,0.825l0.786,0.863l0.834,0.835l5.79,5.79l7.208,6.92l7.086,7.088c0.909,1.106,2.346,2.855,2.805,3.393l1.211,4.276  l0.05,0.176l0.128,0.128l1.47,1.47l0.495,0.495l0.496-0.495l0.905-0.905l0.2-0.201l1.136,0.947l15.827,15.826l1.639,1.857  l0.252,0.254l3.143,6.265l0.051,0.101l0.08,0.08l2.426,2.426l0.495,0.495l0.495-0.495L79.168,82.199z M79.176,80.848l-0.504,0.503  l-2.228-2.228l-2.171-3.52v-0.001l-0.48-0.788l2.172,2.172c0.092,0.091,0.231,0.089,0.329,0.011c0.009-0.007,0.022-0.003,0.03-0.012  c0.037-0.037,0.055-0.099,0.062-0.159c0.001-0.006,0.007-0.011,0.007-0.018c0-0.002,0.002-0.005,0.003-0.007  c-0.007-0.064-0.028-0.128-0.071-0.171c-0.002-0.002-0.008,0-0.01-0.004l-2.254-2.254c-0.002,0-0.004,0-0.005-0.001  s-0.001-0.003-0.001-0.004l-1.271-1.193c-0.018-0.018-0.043-0.015-0.064-0.026c-0.025-0.013-0.047-0.026-0.074-0.03  c-0.012-0.002-0.021-0.014-0.034-0.013l0.431-0.432l0.002,0.002c0,0.002,0,0.003,0.001,0.006c-0.001,0.02,0.017,0.035,0.021,0.056  c0.011,0.036,0.012,0.075,0.038,0.105l1.155,1.31c0.003,0.002,0.005,0.001,0.007,0.004c0.002,0.002,0.002,0.006,0.004,0.008  l5.198,5.198c0.003,0.003,0.009,0.001,0.013,0.005c0.004,0.003,0.003,0.009,0.006,0.012l0.637,0.521l-0.299,0.299l-0.557-0.617  c-0.002-0.002-0.006-0.001-0.007-0.002c-0.001-0.003-0.001-0.005-0.003-0.007l-1.742-1.742c-0.002-0.002,0-0.008-0.004-0.011  c-0.029-0.03-0.078-0.037-0.125-0.045c-0.08-0.019-0.164-0.012-0.229,0.052c-0.098,0.098-0.098,0.256,0,0.354l1.744,1.744  l0.568,0.628L79.176,80.848z M54.312,55.44l-0.941-0.783l1.889-1.889l0.756,0.968L54.312,55.44z M56.35,54.11l15.495,15.496  l-1.669,1.668L54.681,55.779L56.35,54.11z M70.52,71.639l1.693-1.693l1.545,1.306l-1.902,1.901L70.52,71.639z M74.126,71.59  l0.077,0.077c-0.016-0.009-0.033-0.003-0.05-0.008c-0.026-0.009-0.05-0.021-0.077-0.021L74.126,71.59z M72.369,73.346  c-0.002,0.028,0.012,0.051,0.02,0.078c0.007,0.021-0.002,0.044,0.01,0.063l0.359,0.59l-0.433-0.433l-0.127-0.127L72.369,73.346z   M83.176,80.913l-1.689,1.689l-1.771-1.588l0.277-0.277l0.68-0.68l0.796-0.795c0.003-0.003,0.005-0.005,0.007-0.008l0.146-0.145  L83.176,80.913z M82.076,77.947l-0.619,0.619l-0.174,0.173l-0.629-0.578l-1.734-1.733c0-0.001,0-0.001,0-0.001  c0-0.001-0.001,0-0.002-0.001l-0.002-0.003c-0.02-0.019-0.047-0.017-0.068-0.028c-0.036-0.018-0.071-0.046-0.105-0.046  c-0.002,0-0.002,0.001-0.002,0.001c-0.064,0-0.129,0.024-0.178,0.073s-0.074,0.113-0.074,0.178c0.002,0.001,0,0.001,0,0.003  c0,0.024,0.023,0.049,0.033,0.075c0.012,0.033,0.014,0.071,0.041,0.098l1.745,1.746c0.001,0.001,0.003,0,0.005,0.002  s0.002,0.004,0.003,0.006l0.614,0.563l-0.426,0.425l-0.558-0.616c-0.002-0.002-0.005-0.002-0.006-0.003  c-0.001-0.003-0.001-0.005-0.003-0.007l-5.198-5.198c-0.001-0.001-0.003-0.001-0.004-0.002s-0.001-0.003-0.001-0.004l-1.271-1.193  c-0.029-0.027-0.067-0.03-0.104-0.041c-0.021-0.007-0.037-0.023-0.058-0.023c-0.005-0.001-0.008-0.005-0.012-0.005l0.544-0.544  c0,0.012,0.012,0.022,0.015,0.034c0.003,0.027,0.017,0.046,0.028,0.07c0.012,0.021,0.011,0.049,0.029,0.067l1.198,1.266  c0.001,0.001,0.003,0,0.003,0.001c0.002,0.001,0.002,0.003,0.002,0.004l2.26,2.259c0,0.001,0.002,0.001,0.002,0.001v0.001  c0.043,0.042,0.113,0.071,0.17,0.071c0,0,0-0.001,0.002-0.001c0.032,0.001,0.06-0.022,0.09-0.035  c0.031-0.012,0.068-0.011,0.092-0.035c0.023-0.022,0.026-0.064,0.039-0.101c0.01-0.028,0.031-0.052,0.031-0.081  c0-0.001,0-0.001,0-0.002c0-0.057-0.027-0.128-0.07-0.17c0-0.001-0.002-0.001-0.002-0.001v-0.001l-2.143-2.142l0.139,0.085  c0,0,0-0.001,0.001,0l4.128,2.547L82.076,77.947z M80.652,74.933l2.219,2.22l-0.441,0.441l-2.25-2.248  c-0.006-0.008-0.019-0.005-0.027-0.012c-0.008-0.007-0.008-0.019-0.018-0.024l-4.129-2.548l-0.309-0.309L80.652,74.933z   M51.529,48.286l3.446,0.971l1.247,1.246l-0.443,0.442l-1.293-1.293c-0.012-0.012-0.029-0.01-0.044-0.019  c-0.015-0.01-0.018-0.027-0.034-0.034l-2.738-1.174L51.529,48.286z M51.429,48.866l2.739,1.174l1.258,1.259l-0.617,0.619  l-0.178,0.177l-0.328-0.284l-1.042-1.042c-0.001-0.001-0.001,0-0.001,0c0-0.001,0-0.001-0.001-0.002  c-0.042-0.043-0.113-0.07-0.17-0.07c-0.001,0-0.001,0-0.003,0.001c-0.064-0.001-0.129,0.022-0.179,0.072s-0.073,0.114-0.071,0.179  c-0.002,0.001-0.002,0.001-0.002,0.002c0,0.057,0.029,0.127,0.071,0.17c0.001,0,0.001,0,0.001,0c0,0.001,0,0.002,0.001,0.003  l1.05,1.05c0.002,0.002,0.006,0.001,0.008,0.003c0.003,0.003,0.002,0.007,0.005,0.009l0.509,0.441  c0.031,0.028,0.07,0.029,0.109,0.039c0.018,0.004,0.031,0.021,0.049,0.021l-0.543,0.543c0-0.006-0.005-0.01-0.006-0.016  c-0.002-0.027-0.016-0.047-0.027-0.072c-0.009-0.022-0.006-0.049-0.023-0.069L53.6,52.557c-0.002-0.003-0.006-0.002-0.008-0.005  c-0.004-0.003-0.002-0.008-0.005-0.01l-3.094-3.094c-0.002-0.002-0.005-0.001-0.007-0.003c-0.001-0.002-0.001-0.005-0.003-0.006  l-0.729-0.656l0.438-0.438l0.663,0.725c0.001,0.002,0.004,0.001,0.005,0.003c0.001,0.001,0.001,0.004,0.002,0.006l1.348,1.348  c0.002,0.001,0.004,0.001,0.005,0.002c0.042,0.041,0.11,0.069,0.173,0.076c0.064-0.008,0.127-0.028,0.178-0.078  c0.042-0.042,0.07-0.113,0.076-0.177c-0.006-0.063-0.034-0.134-0.076-0.177c-0.001,0-0.002,0-0.002,0l-1.258-1.258L51.429,48.866  C51.428,48.866,51.429,48.866,51.429,48.866z M18.338,17.73l0.364,0.245l-0.137,0.138L18.338,17.73z M18.839,18.545l0.282-0.281  l0.336,0.237l-0.381,0.381L18.839,18.545z M25.545,26.544l-0.811-0.811l-0.777-0.854l-0.751-0.829l0,0  c0-0.001-0.001-0.001-0.001-0.001l-0.757-0.824l-0.703-0.857l0,0c0,0,0,0,0,0l-0.681-0.825l-0.635-0.8l-0.615-0.824l-0.443-0.624  l0.453-0.452l0.048-0.049l0.621,0.448l0,0.001l0.834,0.613c0,0,0-0.001,0.001,0c0,0,0,0,0,0.001l0.828,0.598l0.818,0.666  l0.817,0.751c0,0,0.001,0,0.002,0.001c0,0,0,0,0,0l0.839,0.751h0l0.831,0.743l0,0l0.856,0.79l0.805,0.805l5.613,5.613l-1.58,1.58  L25.545,26.544z M38.353,39.071l-6.837-6.564l1.572-1.572l6.555,6.848L38.353,39.071z M39.992,38.14l6.767,6.768l-1.282,1.281  l-6.767-6.767L39.992,38.14z M45.814,46.559l1.317-1.316l3.032,2.426l-1.889,1.889L45.814,46.559z M48.609,49.929l0.081-0.081  l0.117,0.278L48.609,49.929z M50.358,53.718c0.009,0.014,0.006,0.032,0.019,0.045l1.293,1.293l-0.553,0.552l-1.246-1.246  l-0.974-3.438l0.171,0.171l0.253,0.254l1.003,2.336C50.331,53.7,50.349,53.704,50.358,53.718z M52.023,54.702l-1.259-1.259  l-1.002-2.335c0-0.001,0-0.001,0-0.001l-0.236-0.56l1.282,1.281c0.049,0.049,0.113,0.073,0.177,0.073  c0.001,0,0.002,0.002,0.004,0.002c0.042,0,0.089-0.03,0.134-0.06c0.012-0.008,0.027-0.005,0.039-0.016v-0.001  c0.001-0.001,0.002-0.001,0.004-0.002c0.043-0.043,0.07-0.113,0.07-0.17c0-0.001-0.002-0.002-0.002-0.004  c0-0.004-0.004-0.006-0.004-0.01c-0.002-0.064-0.02-0.125-0.064-0.17c-0.004-0.003-0.008-0.002-0.012-0.004l-1.34-1.341  c-0.002-0.002-0.005,0-0.007-0.002c-0.001-0.002-0.001-0.005-0.002-0.007l-0.729-0.656l0.319-0.319l0.612,0.755  c0.003,0.004,0.009,0.003,0.012,0.007c0.003,0.003,0.001,0.009,0.005,0.013l3.094,3.094c0.006,0.005,0.014,0.003,0.02,0.008  s0.005,0.014,0.012,0.018l0.553,0.397c0.022,0.018,0.051,0.014,0.076,0.021c0.021,0.006,0.037,0.021,0.059,0.022  c0.002,0,0.004,0.001,0.006,0.002l-0.427,0.427c-0.001-0.019-0.017-0.033-0.021-0.052c-0.01-0.037-0.012-0.075-0.037-0.105  l-0.437-0.514c-0.002-0.003-0.007-0.002-0.009-0.005c-0.003-0.003-0.002-0.008-0.004-0.011l-1.045-1.044  c-0.004-0.003-0.002-0.008-0.004-0.011c-0.027-0.027-0.074-0.032-0.115-0.041c-0.084-0.024-0.174-0.02-0.24,0.047  c-0.098,0.098-0.098,0.256,0,0.354l1.043,1.043l0.281,0.33l-0.302,0.301L52.023,54.702z M75.547,80.036l-2.48-4.944l0.325,0.326  l0.472,0.471l2.172,3.521c0.006,0.01,0.018,0.01,0.023,0.018c0.007,0.009,0.004,0.021,0.012,0.028l2.248,2.248l-0.552,0.553  L75.547,80.036z" style=""></path></svg>