<svg xmlns="http://www.w3.org/2000/svg" xmlns:xlink="http://www.w3.org/1999/xlink" version="1.1" x="0px" y="0px" viewBox="0 0 100 100" enable-background="new 0 0 100 100" xml:space="preserve" style="max-width:100%" height="100" width="100" ><path fill="#FFFFFF" d="M51.299,59.664l15.26,15.259l1.191,1.125l1.219,1.085l1.305,1.022l1.334,0.952l1.387,0.878l1.404,0.797  l1.424,0.713l1.416,0.655l1.51,0.577l1.449,0.479l1.49,0.389l1.496,0.291l1.033,0.201l-0.215-1.029l-0.299-1.438l-0.383-1.48  l-0.482-1.463l-0.568-1.494l-0.665-1.442l-0.685-1.419l-0.012-0.027l-0.016-0.025l-0.802-1.353l-0.859-1.374l-0.964-1.342  l-1.012-1.293l-1.092-1.241l-1.135-1.19L59.76,51.206l16.22-28.125l0.349-0.604l-0.603-0.351l-0.265-0.155l-5.186-2.975L69.67,18.65  l-0.35,0.604L55.398,43.352l-1.273,2.219l-1.801-1.801L32.635,24.081l-0.098-0.098l0.224-3.763l0.015-0.24l-0.137-0.198  l-0.171-0.249l-0.026-0.038l-0.03-0.034l-0.199-0.221l-0.164-0.204l-0.188-0.231l-0.224-0.261l-0.018-0.02l-0.018-0.018  l-0.221-0.221l-0.216-0.215l-0.018-0.018l-0.02-0.017l-0.243-0.21l-0.245-0.197l-0.248-0.205l-0.199-0.179l-0.035-0.031  l-0.039-0.026l-0.243-0.166l-0.479-0.327l-0.41,0.41l-2.153,2.153l-4.36-3.227l-0.485-0.359l-0.427,0.427l-0.321,0.321l-0.583-0.115  l-0.367-0.073l-0.264,0.264l-3.431,3.431l-0.265,0.264l0.073,0.367l0.115,0.583l-0.327,0.327l-0.428,0.427l0.36,0.485l3.231,4.354  l-2.153,2.152l-0.41,0.41l0.327,0.479l0.166,0.243l0.021,0.032l0.024,0.028l0.193,0.227l0.219,0.253l0.166,0.207l0.21,0.254  l0.021,0.026l0.024,0.024l0.216,0.215l0.221,0.221l0.024,0.024l0.026,0.021l0.249,0.205l0.236,0.191l0.212,0.181l0.227,0.193  l0.027,0.024l0.03,0.021l0.249,0.171l0.198,0.136l0.24-0.013l3.757-0.219l0.099,0.098l19.688,19.688l1.8,1.801l-2.211,1.268  L19.355,69.221l-0.604,0.348l0.346,0.604l2.967,5.188l0.172,0.28l0.357,0.578l0.588-0.34L51.299,59.664z M82.774,81.815l0.222,1.068  l-1.076-0.209l-1.018-0.264l1.609-1.609L82.774,81.815z M74.342,67.132l1.113,1.169l1.059,1.2l0.986,1.261l0.928,1.289l0.848,1.354  l0.795,1.342l0.672,1.394c0,0,0,0,0,0.001l0.645,1.396l0.551,1.444l0.225,0.677c0.008,0.014,0.004,0.032,0.015,0.045l0.181,0.546  l-2.008,2.01l-0.535-0.178c-0.027-0.021-0.062-0.022-0.096-0.031l-0.639-0.211l-1.443-0.551l-1.396-0.645l-1.385-0.693l-1.354-0.767  l-1.35-0.854l-1.301-0.927l-1.256-0.982l-1.193-1.063l-1.178-1.109L51.447,58.469l1.248-1.249l9.027,9.026  c0.012,0.013,0.031,0.01,0.045,0.02s0.02,0.027,0.035,0.035l7.386,3.099c0.001,0.001,0.001,0,0.001,0  c0.004,0.001,0.006,0,0.008,0.001c0.057,0.021,0.113,0.017,0.166-0.002c0.006-0.002,0.012,0.003,0.02,0  c0.031-0.013,0.057-0.031,0.08-0.053c0.021-0.023,0.041-0.049,0.053-0.08c0.004-0.008-0.002-0.014,0-0.021  c0.018-0.051,0.021-0.104,0.002-0.158c-0.002-0.005,0-0.009-0.002-0.014c0,0,0,0,0-0.001l-3.115-7.37  c-0.008-0.016-0.025-0.02-0.035-0.033s-0.006-0.033-0.02-0.046l-9.025-9.026l1.242-1.242L74.342,67.132z M51.094,58.115l-0.01-0.01  l0.046-0.026L51.094,58.115z M53.166,56.805c0.014-0.014,0.025-0.027,0.035-0.046l0.074-0.118l0.028-0.028  c0.069-0.07,0.071-0.165,0.042-0.252c-0.004-0.017-0.01-0.028-0.018-0.043c-0.012-0.02-0.008-0.043-0.024-0.059l-0.017-0.017  l-3.734-3.734l-1.668-1.669l-0.4-0.4l-0.963-1.717l2.295-2.295l1.717,0.962l0.4,0.4l1.667,1.668l3.734,3.734  c0.004,0.003,0.008,0.002,0.012,0.005c0.004,0.004,0.002,0.008,0.006,0.012c0.018,0.018,0.043,0.016,0.064,0.026  c0.016,0.007,0.025,0.015,0.041,0.018c0.086,0.027,0.18,0.024,0.248-0.044l0.034-0.034l0.118-0.073  c0.018-0.01,0.033-0.023,0.046-0.036c0.015-0.015,0.027-0.03,0.038-0.048l0.033-0.058l8.982,8.982l2.857,6.759l-6.775-2.844  l-8.98-8.979l0.059-0.036C53.137,56.831,53.152,56.818,53.166,56.805z M48.97,52.632l-2.122,1.237l-2.135-2.135l0.462-0.463  l2.428-0.006L48.97,52.632z M58.209,51l-0.035,0.036l0.025-0.045L58.209,51z M70.018,19.945l4.748,2.724l-15.984,27.73l-0.27-0.172  l0.334-5.012c0-0.015-0.012-0.025-0.014-0.039c-0.004-0.034-0.014-0.06-0.029-0.089s-0.031-0.052-0.057-0.072  c-0.01-0.009-0.012-0.025-0.025-0.033l-2.375-1.372L70.018,19.945z M56.098,44.043l2.238,1.294l-0.328,4.958l-0.08,0.173  l-1.021,1.731l-0.297,0.403c-0.002,0.004,0,0.009-0.002,0.012c-0.003,0.004-0.008,0.004-0.01,0.007l-0.047,0.078l-3.459-3.459  l1.4-2.402c0,0,0,0,0,0v-0.001L56.098,44.043z M52.727,48.875l-1.365-1.365l0.016-2.439l0.451-0.452l2.135,2.135L52.727,48.875z   M28.555,21.699l-0.405-0.405c0,0,0-0.001-0.001-0.001h-0.001l-0.002-0.002l-0.183-0.183l-0.193-0.193l-0.254-0.254l-0.154-0.155  l-0.188-0.188l-0.027-0.027l2.367-2.367l0.059,0.04l0.208,0.187c0.001,0.002,0.004,0.001,0.005,0.002  c0.002,0.002,0.001,0.004,0.003,0.006l0.254,0.21c0,0,0.001,0,0.001,0c0.001,0.001,0.001,0.001,0.001,0.001l0.22,0.177l0.238,0.206  l0.207,0.207l0.213,0.213l0.205,0.238l0.001,0l0.182,0.225l0.188,0.232c0.001,0.002,0.005,0.001,0.006,0.003  c0.002,0.002,0.001,0.005,0.002,0.007l0.186,0.207l0.115,0.167l-0.233,3.917l-0.081-0.053c-0.001-0.001-0.001,0-0.002-0.001  c0,0,0,0-0.001-0.001l-0.233-0.15l-0.179-0.147c-0.001-0.001-0.003,0-0.004-0.001c-0.001-0.001-0.001-0.003-0.002-0.004  l-0.426-0.326c-0.002-0.002-0.004,0-0.006-0.002c-0.002-0.001-0.002-0.004-0.003-0.005l-0.17-0.119l-0.229-0.197  c0,0-0.001,0-0.001,0l-0.284-0.251c-0.004-0.003-0.009-0.001-0.012-0.004c-0.004-0.002-0.003-0.008-0.007-0.011l-0.161-0.116  l-0.393-0.319l-0.413-0.38c-0.001-0.001-0.001,0-0.002-0.001c0,0,0-0.001,0-0.002l-0.303-0.27L28.555,21.699z M17.363,20.505  l3.242-3.242l0.36,0.071l-3.531,3.53L17.363,20.505z M24.847,31.443l-0.215-0.326c0,0-0.001,0-0.002-0.001c0-0.001,0-0.001,0-0.001  l-0.166-0.244c-0.002-0.002-0.007-0.002-0.01-0.006c-0.002-0.004-0.001-0.009-0.003-0.012l-0.153-0.187l-0.308-0.425  c0,0-0.001-0.001-0.001-0.001c-0.001-0.001,0-0.002-0.001-0.003l-0.132-0.177c-0.002-0.002-0.005-0.001-0.008-0.004  c-0.002-0.003-0.001-0.006-0.003-0.009l-0.204-0.237c0,0-0.001,0-0.001,0l-0.244-0.288l-0.118-0.15h0l-0.332-0.42  c-0.001-0.001-0.004-0.002-0.005-0.003c-0.002-0.001-0.001-0.004-0.002-0.006l-0.371-0.426c-0.002-0.003-0.005-0.001-0.008-0.004  c-0.002-0.002-0.001-0.006-0.003-0.008l-0.293-0.293l-0.11-0.11l-0.409-0.409l-0.183-0.183l-0.193-0.193l-0.254-0.254l-0.155-0.154  l-0.188-0.188l-0.204-0.204c-0.063-0.062-0.147-0.07-0.228-0.052l-3.321-4.476l0.439-0.439l4.193-4.192l0.433-0.434l4.481,3.316  c-0.018,0.081-0.01,0.165,0.052,0.228l0.204,0.204l0.188,0.188l0.154,0.155l0.254,0.254l0.193,0.193l0.183,0.183l0.409,0.409  l0.11,0.11c0.002,0.002,0.005,0,0.007,0.002s0.002,0.005,0.004,0.007l0.306,0.273c0,0,0,0,0,0l0.414,0.381  c0.003,0.002,0.006,0.001,0.008,0.003s0.001,0.005,0.003,0.007l0.415,0.337c0.002,0.002,0.005,0.001,0.007,0.002  c0.002,0.002,0.001,0.006,0.004,0.007l0.152,0.11l0.276,0.245c0,0,0.001,0,0.001,0c0.001,0,0,0.001,0.001,0.002l0.237,0.204  c0.004,0.003,0.01,0.002,0.014,0.005s0.003,0.008,0.007,0.011l0.174,0.122l0.421,0.322l0.184,0.151  c0.005,0.003,0.011,0.002,0.016,0.005c0.005,0.003,0.004,0.01,0.009,0.012l0.245,0.158l0,0.001l0.326,0.215l0.108,0.078  c0.025,0.018,0.055,0.015,0.082,0.022c0.018,0.005,0.029,0.023,0.049,0.024c0.006,0,0.009-0.006,0.016-0.006  c0.065,0,0.128-0.019,0.176-0.066h0c0.005-0.006,0.01-0.012,0.015-0.018l19.485,19.485L50.95,44.79  c-0.029,0.028-0.031,0.067-0.042,0.104c-0.009,0.025-0.03,0.043-0.03,0.072l0,0.001l-0.012,2.046l-0.003-0.002  c-0.009-0.009-0.022-0.006-0.033-0.014c-0.009-0.007-0.01-0.021-0.021-0.027l-1.912-1.072c-0.02-0.011-0.042-0.002-0.063-0.008  c-0.032-0.008-0.059-0.016-0.092-0.011c-0.032,0.005-0.056,0.019-0.083,0.035c-0.02,0.011-0.044,0.008-0.061,0.025l-2.563,2.563  c-0.016,0.016-0.013,0.04-0.024,0.059c-0.018,0.029-0.032,0.054-0.036,0.088c-0.004,0.031,0.002,0.057,0.011,0.088  c0.005,0.021-0.004,0.044,0.008,0.064l1.071,1.912c0.006,0.011,0.021,0.012,0.028,0.021s0.004,0.023,0.014,0.033l-2.033,0.004h0  c-0.034,0-0.058,0.024-0.088,0.036c-0.03,0.013-0.063,0.012-0.088,0.037l-0.536,0.536L24.874,31.895  c0.009-0.007,0.017-0.013,0.024-0.021l0,0c0.048-0.048,0.066-0.112,0.065-0.178c0-0.007,0.007-0.011,0.007-0.018  c-0.001-0.019-0.019-0.031-0.024-0.049c-0.008-0.026-0.005-0.055-0.021-0.078L24.847,31.443z M20.351,31.708l-0.17-0.118  l-0.213-0.182l-0.227-0.193c0-0.001-0.002,0-0.003-0.001c-0.001-0.001-0.001-0.003-0.002-0.004l-0.229-0.186  c0,0-0.001-0.001-0.001-0.001l-0.241-0.198l-0.21-0.211l-0.205-0.205l-0.198-0.241l0,0l-0.181-0.224  c0-0.002-0.003-0.001-0.004-0.002c-0.001-0.002,0-0.004-0.001-0.005l-0.216-0.249c0,0,0,0-0.001-0.001l-0.181-0.212l-0.043-0.062  l2.367-2.367l0.027,0.027l0.188,0.188l0.155,0.154l0.254,0.254l0.193,0.193l0.178,0.178c0.002,0.003,0.001,0.008,0.004,0.011  s0.008,0.002,0.011,0.004l0.399,0.399l0.11,0.11l0.286,0.286l0.365,0.42l0.323,0.409l0.122,0.154  c0.001,0.001,0.003,0.002,0.004,0.003c0.001,0.001,0,0.003,0.001,0.005l0.249,0.293h0c0,0.001,0,0.001,0.001,0.001l0.2,0.233  l0.126,0.168c0,0,0,0,0,0.001l0.312,0.432c0.002,0.002,0.005,0.002,0.008,0.005c0.001,0.002,0,0.006,0.002,0.008l0.148,0.18  l0.156,0.229l0.057,0.085L20.351,31.708z M46.932,54.398C46.932,54.398,46.932,54.397,46.932,54.398  c0.001-0.002,0.001-0.002,0.001-0.002l2.402-1.399l3.458,3.458l-0.078,0.049c-0.004,0.002-0.004,0.006-0.008,0.009  c-0.002,0.002-0.006,0-0.01,0.003l-0.402,0.295l-1.732,1.021l-0.173,0.08l-4.952,0.324l-1.294-2.24L46.932,54.398z M20.045,69.918  L43.71,56.246l1.372,2.375c0.008,0.014,0.024,0.015,0.033,0.025c0.021,0.025,0.043,0.04,0.073,0.056  c0.029,0.016,0.054,0.026,0.087,0.03c0.015,0.001,0.024,0.014,0.039,0.013l5.007-0.327l0.172,0.269L22.764,74.672L20.045,69.918z" style=""></path></svg>