<svg xmlns="http://www.w3.org/2000/svg" xmlns:xlink="http://www.w3.org/1999/xlink" version="1.1" x="0px" y="0px" viewBox="0 0 64 64" style="enable-background:new 0 0 64 64;max-width:100%" xml:space="preserve" height="70" width="70" ><g style="" fill="#E51937"><rect x="16" y="17" width="20" height="2" style="" fill="#E51937"></rect><path d="M45,46c0,2.757,2.243,5,5,5s5-2.243,5-5s-2.243-5-5-5S45,43.243,45,46z M53,46c0,1.654-1.346,3-3,3s-3-1.346-3-3   s1.346-3,3-3S53,44.346,53,46z" style="" fill="#E51937"></path><path d="M55.142,16c0.447,1.721,2,3,3.858,3c2.206,0,4-1.794,4-4s-1.794-4-4-4c-1.858,0-3.411,1.279-3.858,3H51V6h4.142   c0.447,1.721,2,3,3.858,3c2.206,0,4-1.794,4-4s-1.794-4-4-4c-1.858,0-3.411,1.279-3.858,3H49v10v1v18h-2v3.466   c-0.558,0.176-1.099,0.4-1.619,0.673l-2.453-2.452l-4.242,4.242l1.97,1.971L33,39.198v-2.471c3.022-2.181,5-5.723,5-9.727v-5.331   c0.207-0.205,0.402-0.424,0.569-0.669H40h1h2v-2h-2v-2c0-7.155-5.168-13.334-12.131-14.692C28.586,1.547,27.859,1,27,1h-2   c-0.859,0-1.586,0.547-1.869,1.308C16.168,3.666,11,9.845,11,17v2H9v2h2h1h1.431c0.168,0.245,0.362,0.464,0.569,0.669V27   c0,4.004,1.978,7.546,5,9.727v2.471l-7.82,1.737C5.186,42.268,1,47.485,1,53.626V63h50v-4h2v-3.466   c0.558-0.176,1.099-0.4,1.619-0.673l2.453,2.452l4.242-4.242l-2.452-2.452c0.272-0.52,0.497-1.062,0.672-1.619H63v-6h-3.466   c-0.176-0.558-0.4-1.1-0.672-1.619l2.452-2.452l-4.242-4.242l-2.453,2.452c-0.52-0.272-1.061-0.497-1.619-0.673V33h-2V16H55.142z    M59,13c1.103,0,2,0.897,2,2s-0.897,2-2,2s-2-0.897-2-2S57.897,13,59,13z M59,3c1.103,0,2,0.897,2,2s-0.897,2-2,2s-2-0.897-2-2   S57.897,3,59,3z M40.495,42.919c-0.009,0.027-0.021,0.053-0.029,0.081H37v6h3.466c0.176,0.558,0.4,1.1,0.672,1.619l-2.452,2.452   L39,53.385V57H27v-3.666l8.627-11.503l4.761,1.058C40.423,42.897,40.46,42.911,40.495,42.919z M28.537,47.951L26,51.333   l-2.537-3.382L26,45.414L28.537,47.951z M25,53.334V57H13V42.58l3.373-0.75L25,53.334z M13,59h12v2H13V59z M27,59h12v2H27V59z    M33.485,41.354l-3.736,4.981l-2.727-2.727l5.109-2.554L33.485,41.354z M13,19v-2c0-6.024,4.225-11.263,10-12.632V9h2V3h2v6h2   V4.368C34.775,5.737,39,10.976,39,17v2h-1.618l-0.276,0.553C36.659,20.445,35.762,21,34.764,21H17.236   c-0.998,0-1.895-0.555-2.341-1.447L14.618,19H13z M16,27v-4.172C16.396,22.938,16.81,23,17.236,23h17.528   c0.426,0,0.839-0.062,1.236-0.172V27c0,3.797-2.128,7.107-5.254,8.799C30.281,34.742,29.227,34,28,34h-4   c-1.227,0-2.281,0.742-2.745,1.799C18.128,34.107,16,30.797,16,27z M28.893,36.57C27.977,36.847,27.006,37,26,37   s-1.977-0.153-2.893-0.43C23.269,36.235,23.604,36,24,36h4C28.396,36,28.731,36.235,28.893,36.57z M26,39   c1.786,0,3.476-0.403,5-1.105v1.487l-5,2.5l-5-2.5v-1.487C22.524,38.597,24.214,39,26,39z M19.87,41.053l5.109,2.554l-2.727,2.727   l-3.736-4.981L19.87,41.053z M3,53.626c0-4.982,3.261-9.238,8-10.573V61H3V53.626z M49,61h-8v-5.615l1.929,1.929l2.453-2.452   c0.52,0.272,1.061,0.497,1.619,0.673V59h2V61z M54.251,39.232l0.676,0.426l2.144-2.144l1.414,1.414l-2.144,2.144l0.425,0.676   c0.482,0.766,0.828,1.598,1.027,2.474L57.971,45H61v2h-3.029l-0.177,0.778c-0.199,0.876-0.545,1.708-1.027,2.474l-0.425,0.676   l2.144,2.144l-1.414,1.414l-2.144-2.144l-0.676,0.426c-0.765,0.481-1.597,0.827-2.474,1.027L51,53.972V57h-2v-3.028l-0.778-0.177   c-0.876-0.2-1.709-0.546-2.474-1.027l-0.676-0.426l-2.144,2.144l-1.414-1.414l2.144-2.144l-0.425-0.676   c-0.482-0.766-0.828-1.598-1.027-2.474L42.029,47H39v-2h3.029l0.177-0.778c0.199-0.876,0.545-1.708,1.027-2.474l0.425-0.676   l-2.144-2.144l1.414-1.414l2.144,2.144l0.676-0.426c0.765-0.481,1.597-0.827,2.474-1.027L49,38.028V35h2v3.028l0.778,0.177   C52.654,38.405,53.487,38.751,54.251,39.232z" style="" fill="#E51937"></path></g></svg>