<svg xmlns="http://www.w3.org/2000/svg" xmlns:xlink="http://www.w3.org/1999/xlink" version="1.1" x="0px" y="0px" viewBox="0 0 100 100" enable-background="new 0 0 100 100" xml:space="preserve" style="max-width:100%" height="100" width="100" ><g style="" fill="#FFFFFF"><polygon points="29.161,8.89 29.089,10.474 29.792,10.111 34.777,19.734 40.257,30.313 40.183,31.898 42.839,30.521 41.505,29.668    36.026,19.087 31.042,9.464 31.744,9.1 30.41,8.247 30.028,7.508 27.58,4.307 28.78,8.155  " style="" fill="#FFFFFF"></polygon><path d="M41.708,31.47c-0.419,0.343-0.06,1.539,0.47,3.562c0.53,2.024,1.997,1.94,2.527,3.964c0.53,2.023-1.405,2.53-0.875,4.553   s2.465,1.517,2.995,3.54c0.53,2.024-1.404,2.531-0.874,4.555c0.531,2.026,2.466,1.521,2.997,3.548   c0.264,1.008-0.713,4.497-1.116,5.286l15.09-7.851c-0.009-0.883-2.961-2.273-3.904-3.339c-1.386-1.564-2.883-0.237-4.269-1.801   c-1.387-1.565,0.111-2.892-1.276-4.458c-1.387-1.566-2.884-0.239-4.271-1.805c-1.388-1.566,0.109-2.892-1.278-4.458   c-1.39-1.568-3.139-0.426-4.088-2.294C42.959,32.746,42.2,31.066,41.708,31.47z" style="" fill="#FFFFFF"></path><path d="M78.89,88.204v7.109H69.74V83.034l-2.459-1.015l9.586-4.977l-7.691-14.813V40.02h1.658v-8.122h-2.655v8.122h0.564v21.376   l-4.614-8.887l-17.318,8.989l8.716,16.781v5.548L43.933,90.79l-0.146-0.243l-7.929,4.767h-9.115v-7.109H19.76v7.109v0.55v0.544   h28.114H69.74h11.089v-0.544v-0.55v-7.109H78.89z M61.21,55.746c0.17-0.091,0.387-0.023,0.478,0.151l7.415,14.274   c0.09,0.174,0.022,0.388-0.151,0.478c-0.052,0.027-0.107,0.04-0.163,0.04c-0.128,0-0.251-0.069-0.314-0.191l-7.415-14.274   C60.969,56.05,61.036,55.836,61.21,55.746z M56.143,58.479c0.171-0.091,0.387-0.023,0.478,0.151l7.415,14.274   c0.09,0.174,0.022,0.388-0.151,0.478c-0.052,0.027-0.107,0.04-0.163,0.04c-0.128,0-0.251-0.069-0.314-0.191l-7.415-14.274   C55.901,58.782,55.969,58.568,56.143,58.479z M50.924,61.688c-0.09-0.174-0.022-0.388,0.151-0.478   c0.171-0.09,0.387-0.024,0.478,0.151l7.415,14.274c0.09,0.174,0.022,0.388-0.151,0.478c-0.052,0.027-0.107,0.04-0.163,0.04   c-0.128,0-0.251-0.069-0.314-0.191L50.924,61.688z M67.397,92.97H55.526l-5.217,2.344H38.053l6.317-3.794l-0.146-0.243   l11.302-6.787v0.906l11.871,5.076V92.97z" style="" fill="#FFFFFF"></path></g></svg>