<svg xmlns="http://www.w3.org/2000/svg" xmlns:xlink="http://www.w3.org/1999/xlink" version="1.1" x="0px" y="0px" viewBox="0 0 100 100" enable-background="new 0 0 100 100" xml:space="preserve" style="max-width:100%" height="100" width="100" ><g style="" fill="#E51937"><path d="M75.16,19.83h-7.04v-3c0-1.65-1.341-3-3-3c-1.649,0-3,1.35-3,3v3H37.88v-3c0-1.65-1.35-3-3-3c-1.66,0-3,1.35-3,3v3h-7.04   c-4.41,0-8.01,3.6-8.01,8.01v50.32c0,4.41,3.6,8.01,8.01,8.01h50.32c4.41,0,8.01-3.6,8.01-8.01V27.84   C83.17,23.43,79.57,19.83,75.16,19.83z M77.17,78.16c0,1.1-0.91,2.01-2.01,2.01H24.84c-1.1,0-2.01-0.91-2.01-2.01V45.54h54.34   V78.16z M77.17,39.54H22.83v-11.7c0-1.1,0.91-2.01,2.01-2.01h7.04v4.71c0,1.65,1.34,3,3,3c1.65,0,3-1.35,3-3v-4.71h24.24v4.71   c0,1.65,1.351,3,3,3c1.659,0,3-1.35,3-3v-4.71h7.04c1.1,0,2.01,0.91,2.01,2.01V39.54z" style="" fill="#E51937"></path></g><g style="" fill="#E51937"><path d="M35.688,59.25h-0.5c-1.657,0-3-1.343-3-3s1.343-3,3-3h0.5c1.657,0,3,1.343,3,3S37.344,59.25,35.688,59.25z" style="" fill="#E51937"></path><path d="M50.349,59.25h-0.698c-1.657,0-3-1.343-3-3s1.343-3,3-3h0.698c1.657,0,3,1.343,3,3S52.006,59.25,50.349,59.25z" style="" fill="#E51937"></path><path d="M64.812,59.25h-0.5c-1.657,0-3-1.343-3-3s1.343-3,3-3h0.5c1.657,0,3,1.343,3,3S66.47,59.25,64.812,59.25z" style="" fill="#E51937"></path></g><g style="" fill="#E51937"><path d="M35.688,73.75h-0.5c-1.657,0-3-1.343-3-3s1.343-3,3-3h0.5c1.657,0,3,1.343,3,3S37.344,73.75,35.688,73.75z" style="" fill="#E51937"></path><path d="M50.349,73.75h-0.698c-1.657,0-3-1.343-3-3s1.343-3,3-3h0.698c1.657,0,3,1.343,3,3S52.006,73.75,50.349,73.75z" style="" fill="#E51937"></path><path d="M64.812,73.75h-0.5c-1.657,0-3-1.343-3-3s1.343-3,3-3h0.5c1.657,0,3,1.343,3,3S66.47,73.75,64.812,73.75z" style="" fill="#E51937"></path></g></svg>